<svg width="49" height="49" viewBox="0 0 49 49" fill="none" xmlns="http://www.w3.org/2000/svg">
<path d="M12.7037 0V9.07407H11.7963C10.3045 9.07407 9.07407 10.3045 9.07407 11.7963V12.7037H0V14.5185H9.07407V19.963H0V21.7778H9.07407V27.2222H0V29.037H9.07407V34.4815H0V36.2963H9.07407V37.2037C9.07407 38.6955 10.3045 39.9259 11.7963 39.9259H12.7037V49H14.5185V39.9259H19.963V49H21.7778V39.9259H27.2222V49H29.037V39.9259H34.4815V49H36.2963V39.9259H37.2037C38.6955 39.9259 39.9259 38.6955 39.9259 37.2037V36.2963H49V34.4815H39.9259V29.037H49V27.2222H39.9259V21.7778H49V19.963H39.9259V14.5185H49V12.7037H39.9259V11.7963C39.9259 10.3045 38.6955 9.07407 37.2037 9.07407H36.2963V0H34.4815V9.07407H29.037V0H27.2222V9.07407H21.7778V0H19.963V9.07407H14.5185V0H12.7037ZM11.7963 10.8889H37.2037C37.7227 10.8889 38.1111 11.2773 38.1111 11.7963V37.2037C38.1111 37.7227 37.7227 38.1111 37.2037 38.1111H11.7963C11.6763 38.1141 11.557 38.0927 11.4455 38.0481C11.3341 38.0036 11.2329 37.9369 11.148 37.852C11.0631 37.7671 10.9964 37.6659 10.9519 37.5545C10.9073 37.443 10.8859 37.3237 10.8889 37.2037V11.7963C10.8889 11.2773 11.2773 10.8889 11.7963 10.8889ZM19.7361 18.1481C19.3163 18.1524 18.9148 18.3211 18.618 18.618C18.3211 18.9148 18.1524 19.3163 18.1481 19.7361V29.2639C18.1481 30.1277 18.8723 30.8519 19.7361 30.8519H29.2639C29.6837 30.8476 30.0852 30.6789 30.382 30.382C30.6789 30.0852 30.8476 29.6837 30.8519 29.2639V19.7361C30.8476 19.3163 30.6789 18.9148 30.382 18.618C30.0852 18.3211 29.6837 18.1524 29.2639 18.1481H19.7361ZM19.963 19.963H29.037V29.037H19.963V19.963Z" fill="black"/>
</svg>
