<svg width="29" height="47" viewBox="0 0 29 47" fill="none" xmlns="http://www.w3.org/2000/svg">
<path d="M1.95456 0C1.613 0 1.28542 0.135687 1.04389 0.377211C0.80237 0.618735 0.666687 0.946312 0.666687 1.28788V45.0758C0.666687 45.4173 0.80237 45.7449 1.04389 45.9864C1.28542 46.2279 1.613 46.3636 1.95456 46.3636H27.7121C28.0537 46.3636 28.3813 46.2279 28.6228 45.9864C28.8643 45.7449 29 45.4173 29 45.0758V1.28788C29 0.946312 28.8643 0.618735 28.6228 0.377211C28.3813 0.135687 28.0537 0 27.7121 0H1.95456ZM3.24244 2.57576H26.4243V43.7879H3.24244V2.57576ZM7.10608 5.15151C6.76451 5.15151 6.43693 5.2872 6.19541 5.52872C5.95389 5.77025 5.8182 6.09783 5.8182 6.43939V14.1667C5.8182 14.5082 5.95389 14.8358 6.19541 15.0773C6.43693 15.3189 6.76451 15.4545 7.10608 15.4545H22.5606C22.9022 15.4545 23.2298 15.3189 23.4713 15.0773C23.7128 14.8358 23.8485 14.5082 23.8485 14.1667V6.43939C23.8485 6.09783 23.7128 5.77025 23.4713 5.52872C23.2298 5.2872 22.9022 5.15151 22.5606 5.15151H7.10608ZM8.39396 7.72727H21.2727V12.8788H8.39396V7.72727ZM7.10608 18.0303C6.76451 18.0303 6.43693 18.166 6.19541 18.4075C5.95389 18.649 5.8182 18.9766 5.8182 19.3182V24.4697C5.8182 24.8113 5.95389 25.1388 6.19541 25.3804C6.43693 25.6219 6.76451 25.7576 7.10608 25.7576H22.5606C22.9022 25.7576 23.2298 25.6219 23.4713 25.3804C23.7128 25.1388 23.8485 24.8113 23.8485 24.4697V19.3182C23.8485 18.9766 23.7128 18.649 23.4713 18.4075C23.2298 18.166 22.9022 18.0303 22.5606 18.0303H7.10608ZM8.39396 20.6061H21.2727V23.1818H8.39396V20.6061ZM13.5403 30.9091V35.1745C13.1569 35.3952 12.8372 35.7115 12.6124 36.0925C12.3876 36.4734 12.2654 36.9062 12.2576 37.3485C12.2576 38.7548 13.427 39.9242 14.8334 39.9242C16.2397 39.9242 17.4091 38.7548 17.4091 37.3485C17.4012 36.9043 17.2778 36.4698 17.0511 36.0878C16.8244 35.7057 16.5021 35.3892 16.1161 35.1694V30.9091H13.5403Z" fill="black"/>
</svg>
