<svg width="63" height="37" viewBox="0 0 63 37" fill="none" xmlns="http://www.w3.org/2000/svg">
<path d="M0.0152372 37L2.04709 37L2.04708 34.0901L60.9701 34.0901L60.9701 37L63 37L63 30.4408L0.0152369 30.4408L0.0152372 37ZM0.0368339 28.2291L62.9804 28.253L62.9804 23.6837C62.8198 23.6511 62.659 23.612 62.5005 23.5641L62.5005 23.5598C61.9933 23.4036 61.513 23.1703 61.0764 22.8682L61.0764 22.8638C60.787 22.6664 60.5179 22.4405 60.2732 22.1896L60.2732 22.1788C60.1538 22.0548 60.0388 21.9243 59.9303 21.7873L59.9303 21.7851C59.7138 21.5067 59.5219 21.2098 59.3571 20.8978L59.3571 20.8913C59.2703 20.726 59.2009 20.5651 59.1401 20.4085L59.1401 20.3867C59.0788 20.228 59.0259 20.0661 58.9816 19.9018C58.8821 19.5543 58.8209 19.197 58.7993 18.8361L58.7993 18.4664C58.7993 18.325 58.7993 18.125 58.834 17.877C58.8557 17.79 58.858 17.64 58.8992 17.4247L58.8992 17.4029C58.9318 17.2376 58.9729 17.068 59.0293 16.894L59.0293 16.8766C59.0792 16.7135 59.138 16.5504 59.2032 16.3916L59.2032 16.3786C59.3398 16.056 59.507 15.7472 59.7024 15.4565C59.8066 15.3021 59.9151 15.1629 60.0215 15.0367L60.0215 15.0281C60.25 14.7586 60.5044 14.5124 60.7812 14.293L60.7812 14.2756C60.9158 14.1734 61.0549 14.0711 61.2047 13.9755L61.2047 13.9711C61.3486 13.8768 61.497 13.7897 61.6496 13.7101C61.8059 13.6297 61.9666 13.5557 62.1337 13.4905L62.1337 13.4861C62.2965 13.4231 62.4594 13.3709 62.6287 13.3252L62.6287 13.3208C62.7416 13.2882 62.8522 13.2665 62.9629 13.2447L62.9629 2.20329C62.9629 0.981057 62.0143 0.0284969 60.7878 0.0284969L2.19257 0.000224971C1.90616 -0.00386437 1.62184 0.0495681 1.35637 0.15736C1.09091 0.265152 0.849596 0.425121 0.646851 0.62783C0.444105 0.83054 0.283948 1.07188 0.175823 1.33761C0.067697 1.60334 0.0138475 1.88808 0.0173556 2.17502L0.0173561 13.2186C0.179044 13.251 0.339154 13.2909 0.497129 13.3382C0.665788 13.3907 0.831713 13.4517 0.99426 13.5209L0.99426 13.5253C1.15555 13.5938 1.31351 13.67 1.46754 13.7536L1.46754 13.758C1.6195 13.8428 1.77139 13.932 1.91684 14.0298L1.91684 14.0342C2.20676 14.2343 2.47644 14.4623 2.72216 14.7149L2.72216 14.7192C2.84373 14.8432 2.95673 14.978 3.06745 15.1129L3.06745 15.1303C3.28037 15.4064 3.46909 15.7004 3.63175 16.0089C3.71293 16.1682 3.78613 16.3315 3.85104 16.4982L3.85104 16.5113C3.91316 16.6773 3.96686 16.8465 4.01176 17.018C4.10654 17.3604 4.16612 17.7117 4.1897 18.0662L4.1897 18.436C4.1897 18.5773 4.18969 18.7774 4.15061 19.0253C4.1289 19.1188 4.12238 19.2776 4.0833 19.4755L4.0833 19.4973C4.01609 19.8425 3.91354 20.18 3.77724 20.5042L3.77724 20.5216C3.56664 21.0055 3.28892 21.4573 2.95231 21.8634L2.95231 21.8721C2.72371 22.1428 2.46928 22.3905 2.19257 22.6116L2.19257 22.6203C2.05682 22.726 1.91622 22.8254 1.77136 22.9182L1.77136 22.9269C1.62735 23.0211 1.47893 23.1082 1.32643 23.1879C1.16736 23.2685 1.00426 23.3433 0.837913 23.4075L0.837913 23.4119C0.675676 23.4737 0.510564 23.5274 0.343035 23.5728C0.227981 23.6054 0.112883 23.625 -5.83593e-07 23.6489L-3.8339e-07 28.2291L0.0368339 28.2291ZM2.20767 4.36069C2.20767 3.7839 2.43641 3.23073 2.84353 2.82288C3.25064 2.41502 3.80277 2.18589 4.37851 2.18589C4.95425 2.18589 5.50651 2.41502 5.91362 2.82288C6.32073 3.23073 6.54935 3.7839 6.54935 4.36069C6.54935 4.93748 6.32073 5.49065 5.91362 5.8985C5.50651 6.30635 4.95425 6.53548 4.37851 6.53548C3.80277 6.53548 3.25064 6.30635 2.84353 5.8985C2.43641 5.49065 2.20767 4.93748 2.20767 4.36069ZM7.52625 25.1321L7.52625 11.8616L16.4266 11.8616L16.4266 25.1321L7.52625 25.1321ZM9.91425 22.7355L14.0388 22.7355L14.0388 14.2582L9.91425 14.2582L9.91425 22.7355ZM10.8912 7.38148L10.8912 2.18589L13.062 2.18589L13.062 7.38148L10.8912 7.38148ZM17.4037 7.38148L17.4037 2.18589L19.5745 2.18589L19.5745 7.38148L17.4037 7.38148ZM20.5513 25.1321L20.5513 11.8616L29.4517 11.8616L29.4517 25.1321L20.5513 25.1321ZM22.9391 22.7355L27.0638 22.7355L27.0638 14.2582L22.9391 14.2582L22.9391 22.7355ZM23.9162 7.38148L23.9162 2.18589L26.087 2.18589L26.087 7.38148L23.9162 7.38148ZM30.4287 7.38148L30.4287 2.18589L32.5995 2.18589L32.5995 7.38148L30.4287 7.38148ZM33.5763 25.1321L33.5763 11.8616L42.4767 11.8616L42.4767 25.1321L33.5763 25.1321ZM35.9642 22.7355L40.0888 22.7355L40.0888 14.2582L35.9642 14.2582L35.9642 22.7355ZM36.9412 7.38148L36.9412 2.18589L39.112 2.18589L39.112 7.38148L36.9412 7.38148ZM43.4537 7.38148L43.4537 2.18589L45.6246 2.18589L45.6246 7.38148L43.4537 7.38148ZM46.6013 25.1321L46.6013 11.8616L55.5017 11.8616L55.5017 25.1321L46.6013 25.1321ZM48.9892 22.7355L53.1138 22.7355L53.1138 14.2582L48.9892 14.2582L48.9892 22.7355ZM49.9662 7.38148L49.9662 2.18589L52.1371 2.18589L52.1371 7.38148L49.9662 7.38148ZM56.4787 4.36069C56.4787 3.78389 56.7074 3.23073 57.1145 2.82287C57.5216 2.41502 58.0738 2.18589 58.6496 2.18589C59.2253 2.18589 59.7773 2.41502 60.1844 2.82287C60.5915 3.23073 60.8204 3.78389 60.8204 4.36069C60.8204 4.93748 60.5915 5.49064 60.1844 5.8985C59.7773 6.30635 59.2253 6.53548 58.6496 6.53548C58.0738 6.53548 57.5216 6.30635 57.1145 5.8985C56.7074 5.49064 56.4787 4.93748 56.4787 4.36069Z" fill="black"/>
</svg>
