<svg width="50" height="50" viewBox="0 0 50 50" fill="none" xmlns="http://www.w3.org/2000/svg">
<mask id="path-1-outside-1_821_17802" maskUnits="userSpaceOnUse" x="0" y="0" width="50" height="50" fill="black">
<rect fill="white" width="50" height="50"/>
<path d="M47.5306 7.74797L47.9055 7.37268C48.6065 6.66646 49 5.71126 49 4.71562C49 3.71998 48.6065 2.76477 47.9055 2.05856C47.1885 1.37883 46.2387 1 45.2513 1C44.2639 1 43.314 1.37883 42.5971 2.05856L41.5474 3.12438L37.6936 6.96737H4.74884C3.75458 6.96737 2.80105 7.36276 2.09801 8.06657C1.39497 8.77038 1 9.72495 1 10.7203L1 36.2401C1 37.2354 1.39497 38.19 2.09801 38.8938C2.80105 39.5976 3.75458 39.993 4.74884 39.993H20.449C20.3472 41.1428 20.0049 42.2583 19.4443 43.2669C18.8837 44.2756 18.1173 45.1549 17.195 45.8475L14.7957 47.6489C14.6698 47.7435 14.5768 47.8752 14.5299 48.0256C14.483 48.176 14.4845 48.3373 14.5343 48.4868C14.5841 48.6362 14.6795 48.7662 14.8072 48.8583C14.9348 48.9504 15.0882 49 15.2456 49H34.7395C34.8969 49 35.0503 48.9504 35.1779 48.8583C35.3056 48.7662 35.4011 48.6362 35.4508 48.4868C35.5006 48.3373 35.5021 48.176 35.4552 48.0256C35.4083 47.8752 35.3153 47.7435 35.1894 47.6489L32.7901 45.8475C31.8678 45.1549 31.1014 44.2756 30.5408 43.2669C29.9802 42.2583 29.6379 41.1428 29.5361 39.993H45.2363C46.2305 39.993 47.1841 39.5976 47.8871 38.8938C48.5901 38.19 48.9851 37.2354 48.9851 36.2401V10.7203C48.9844 10.1467 48.8531 9.58089 48.601 9.06583C48.3489 8.55077 47.9828 8.10005 47.5306 7.74797ZM38.3234 8.46853L39.823 6.96737L42.0723 4.71562L44.3216 6.96737L45.2513 7.89809L44.6814 8.46853L30.6608 22.5194C29.9512 21.1538 28.8393 20.0397 27.4758 19.328L38.3234 8.46853ZM29.3262 23.279L26.0572 23.9305L26.711 20.6565C27.8409 21.2286 28.7583 22.1476 29.3292 23.279H29.3262ZM31.8904 47.0485L32.4902 47.4988H17.4949L18.0947 47.0485C19.2015 46.2135 20.1187 45.1528 20.7857 43.9365C21.4526 42.7202 21.854 41.3761 21.9635 39.993H28.0216C28.1311 41.3761 28.5325 42.7202 29.1995 43.9365C29.8664 45.1528 30.7836 46.2135 31.8904 47.0485ZM47.4856 36.2401C47.4856 36.8373 47.2486 37.41 46.8268 37.8323C46.4049 38.2546 45.8328 38.4918 45.2363 38.4918H4.74884C4.15229 38.4918 3.58017 38.2546 3.15834 37.8323C2.73651 37.41 2.49953 36.8373 2.49953 36.2401V33.9883H47.4856V36.2401ZM47.4856 32.4872H2.49953V10.7203C2.49953 10.1231 2.73651 9.55034 3.15834 9.12805C3.58017 8.70577 4.15229 8.46853 4.74884 8.46853H36.1941L25.6374 19.0518C25.5309 19.1526 25.4577 19.2835 25.4274 19.427L24.3628 24.7412C24.3404 24.8624 24.3478 24.9872 24.3844 25.1049C24.4209 25.2226 24.4856 25.3296 24.5727 25.4167C24.7178 25.5573 24.9106 25.6378 25.1125 25.6419C25.1575 25.6419 25.2025 25.6269 25.2475 25.6269L30.5558 24.561C30.5761 24.5592 30.5954 24.5513 30.6113 24.5385C30.6218 24.5385 30.6323 24.5385 30.6428 24.5385H30.6563C30.7112 24.5175 30.7619 24.487 30.8063 24.4484L30.8183 24.4379C30.8649 24.4065 30.9076 24.3697 30.9457 24.3283C30.9697 24.31 30.9927 24.2905 31.0147 24.2698L46.4509 8.82881C46.7702 9.02957 47.0329 9.30875 47.214 9.63982C47.3951 9.97089 47.4886 10.3428 47.4856 10.7203V32.4872ZM46.8408 6.30685L46.3159 6.84727L43.1369 3.6648L43.6618 3.12438C44.0887 2.7127 44.6585 2.48269 45.2513 2.48269C45.8441 2.48269 46.4138 2.7127 46.8408 3.12438C47.262 3.54659 47.4986 4.1189 47.4986 4.71562C47.4986 5.31233 47.262 5.88465 46.8408 6.30685ZM22.028 25.9721C21.4993 26.429 20.8847 26.7754 20.2202 26.991C19.5558 27.2065 18.8551 27.2868 18.1592 27.2271C17.6453 27.1766 17.1475 27.0197 16.6975 26.7661C16.2475 26.5126 15.8552 26.1681 15.5455 25.7545C14.8984 24.8601 14.5329 23.7927 14.4958 22.6891C14.4774 22.1098 14.4914 21.5299 14.5378 20.9522C14.6759 19.8134 14.6038 18.6588 14.3249 17.5461C14.0856 16.7855 13.6929 16.0823 13.1711 15.4798C12.6493 14.8774 12.0095 14.3887 11.2913 14.0439C10.4855 13.6454 9.60847 13.4118 8.71143 13.3566C7.81439 13.3015 6.91537 13.4259 6.06693 13.7226C5.97107 13.7537 5.88246 13.8037 5.80637 13.8699C5.73028 13.936 5.66828 14.0167 5.62407 14.1074C5.57986 14.198 5.55435 14.2966 5.54907 14.3973C5.54378 14.4981 5.55883 14.5988 5.59331 14.6936C5.62779 14.7884 5.68099 14.8752 5.74974 14.9489C5.81849 15.0227 5.90138 15.0818 5.99346 15.1227C6.08554 15.1636 6.18491 15.1856 6.28565 15.1872C6.38638 15.1888 6.48642 15.1701 6.57977 15.1322C7.2372 14.9018 7.934 14.8051 8.62925 14.8479C9.32451 14.8907 10.0042 15.0721 10.6285 15.3814C11.164 15.6369 11.6414 15.9996 12.0314 16.447C12.4214 16.8945 12.7156 17.4172 12.8958 17.9829C13.1158 18.9231 13.1665 19.8951 13.0458 20.8531C12.9921 21.4906 12.9756 22.1307 12.9963 22.7701C13.0482 24.1729 13.5182 25.528 14.3459 26.6612C14.7777 27.2397 15.3256 27.7214 15.9544 28.0753C16.5832 28.4293 17.2791 28.6476 17.9972 28.7163C18.2089 28.7391 18.4216 28.7507 18.6345 28.7508C20.2368 28.7322 21.7818 28.1522 23.0012 27.1115C23.0762 27.0476 23.1379 26.9696 23.1828 26.8818C23.2277 26.7941 23.2549 26.6983 23.2629 26.6001C23.2708 26.5018 23.2593 26.4029 23.2291 26.3091C23.1989 26.2152 23.1505 26.1283 23.0866 26.0532C23.0228 25.9781 22.9449 25.9163 22.8572 25.8713C22.7696 25.8264 22.6739 25.7992 22.5758 25.7912C22.4776 25.7833 22.3788 25.7948 22.2851 25.825C22.1914 25.8553 22.1045 25.9037 22.0295 25.9676L22.028 25.9721Z"/>
</mask>
<path d="M47.5306 7.74797L47.9055 7.37268C48.6065 6.66646 49 5.71126 49 4.71562C49 3.71998 48.6065 2.76477 47.9055 2.05856C47.1885 1.37883 46.2387 1 45.2513 1C44.2639 1 43.314 1.37883 42.5971 2.05856L41.5474 3.12438L37.6936 6.96737H4.74884C3.75458 6.96737 2.80105 7.36276 2.09801 8.06657C1.39497 8.77038 1 9.72495 1 10.7203L1 36.2401C1 37.2354 1.39497 38.19 2.09801 38.8938C2.80105 39.5976 3.75458 39.993 4.74884 39.993H20.449C20.3472 41.1428 20.0049 42.2583 19.4443 43.2669C18.8837 44.2756 18.1173 45.1549 17.195 45.8475L14.7957 47.6489C14.6698 47.7435 14.5768 47.8752 14.5299 48.0256C14.483 48.176 14.4845 48.3373 14.5343 48.4868C14.5841 48.6362 14.6795 48.7662 14.8072 48.8583C14.9348 48.9504 15.0882 49 15.2456 49H34.7395C34.8969 49 35.0503 48.9504 35.1779 48.8583C35.3056 48.7662 35.4011 48.6362 35.4508 48.4868C35.5006 48.3373 35.5021 48.176 35.4552 48.0256C35.4083 47.8752 35.3153 47.7435 35.1894 47.6489L32.7901 45.8475C31.8678 45.1549 31.1014 44.2756 30.5408 43.2669C29.9802 42.2583 29.6379 41.1428 29.5361 39.993H45.2363C46.2305 39.993 47.1841 39.5976 47.8871 38.8938C48.5901 38.19 48.9851 37.2354 48.9851 36.2401V10.7203C48.9844 10.1467 48.8531 9.58089 48.601 9.06583C48.3489 8.55077 47.9828 8.10005 47.5306 7.74797ZM38.3234 8.46853L39.823 6.96737L42.0723 4.71562L44.3216 6.96737L45.2513 7.89809L44.6814 8.46853L30.6608 22.5194C29.9512 21.1538 28.8393 20.0397 27.4758 19.328L38.3234 8.46853ZM29.3262 23.279L26.0572 23.9305L26.711 20.6565C27.8409 21.2286 28.7583 22.1476 29.3292 23.279H29.3262ZM31.8904 47.0485L32.4902 47.4988H17.4949L18.0947 47.0485C19.2015 46.2135 20.1187 45.1528 20.7857 43.9365C21.4526 42.7202 21.854 41.3761 21.9635 39.993H28.0216C28.1311 41.3761 28.5325 42.7202 29.1995 43.9365C29.8664 45.1528 30.7836 46.2135 31.8904 47.0485ZM47.4856 36.2401C47.4856 36.8373 47.2486 37.41 46.8268 37.8323C46.4049 38.2546 45.8328 38.4918 45.2363 38.4918H4.74884C4.15229 38.4918 3.58017 38.2546 3.15834 37.8323C2.73651 37.41 2.49953 36.8373 2.49953 36.2401V33.9883H47.4856V36.2401ZM47.4856 32.4872H2.49953V10.7203C2.49953 10.1231 2.73651 9.55034 3.15834 9.12805C3.58017 8.70577 4.15229 8.46853 4.74884 8.46853H36.1941L25.6374 19.0518C25.5309 19.1526 25.4577 19.2835 25.4274 19.427L24.3628 24.7412C24.3404 24.8624 24.3478 24.9872 24.3844 25.1049C24.4209 25.2226 24.4856 25.3296 24.5727 25.4167C24.7178 25.5573 24.9106 25.6378 25.1125 25.6419C25.1575 25.6419 25.2025 25.6269 25.2475 25.6269L30.5558 24.561C30.5761 24.5592 30.5954 24.5513 30.6113 24.5385C30.6218 24.5385 30.6323 24.5385 30.6428 24.5385H30.6563C30.7112 24.5175 30.7619 24.487 30.8063 24.4484L30.8183 24.4379C30.8649 24.4065 30.9076 24.3697 30.9457 24.3283C30.9697 24.31 30.9927 24.2905 31.0147 24.2698L46.4509 8.82881C46.7702 9.02957 47.0329 9.30875 47.214 9.63982C47.3951 9.97089 47.4886 10.3428 47.4856 10.7203V32.4872ZM46.8408 6.30685L46.3159 6.84727L43.1369 3.6648L43.6618 3.12438C44.0887 2.7127 44.6585 2.48269 45.2513 2.48269C45.8441 2.48269 46.4138 2.7127 46.8408 3.12438C47.262 3.54659 47.4986 4.1189 47.4986 4.71562C47.4986 5.31233 47.262 5.88465 46.8408 6.30685ZM22.028 25.9721C21.4993 26.429 20.8847 26.7754 20.2202 26.991C19.5558 27.2065 18.8551 27.2868 18.1592 27.2271C17.6453 27.1766 17.1475 27.0197 16.6975 26.7661C16.2475 26.5126 15.8552 26.1681 15.5455 25.7545C14.8984 24.8601 14.5329 23.7927 14.4958 22.6891C14.4774 22.1098 14.4914 21.5299 14.5378 20.9522C14.6759 19.8134 14.6038 18.6588 14.3249 17.5461C14.0856 16.7855 13.6929 16.0823 13.1711 15.4798C12.6493 14.8774 12.0095 14.3887 11.2913 14.0439C10.4855 13.6454 9.60847 13.4118 8.71143 13.3566C7.81439 13.3015 6.91537 13.4259 6.06693 13.7226C5.97107 13.7537 5.88246 13.8037 5.80637 13.8699C5.73028 13.936 5.66828 14.0167 5.62407 14.1074C5.57986 14.198 5.55435 14.2966 5.54907 14.3973C5.54378 14.4981 5.55883 14.5988 5.59331 14.6936C5.62779 14.7884 5.68099 14.8752 5.74974 14.9489C5.81849 15.0227 5.90138 15.0818 5.99346 15.1227C6.08554 15.1636 6.18491 15.1856 6.28565 15.1872C6.38638 15.1888 6.48642 15.1701 6.57977 15.1322C7.2372 14.9018 7.934 14.8051 8.62925 14.8479C9.32451 14.8907 10.0042 15.0721 10.6285 15.3814C11.164 15.6369 11.6414 15.9996 12.0314 16.447C12.4214 16.8945 12.7156 17.4172 12.8958 17.9829C13.1158 18.9231 13.1665 19.8951 13.0458 20.8531C12.9921 21.4906 12.9756 22.1307 12.9963 22.7701C13.0482 24.1729 13.5182 25.528 14.3459 26.6612C14.7777 27.2397 15.3256 27.7214 15.9544 28.0753C16.5832 28.4293 17.2791 28.6476 17.9972 28.7163C18.2089 28.7391 18.4216 28.7507 18.6345 28.7508C20.2368 28.7322 21.7818 28.1522 23.0012 27.1115C23.0762 27.0476 23.1379 26.9696 23.1828 26.8818C23.2277 26.7941 23.2549 26.6983 23.2629 26.6001C23.2708 26.5018 23.2593 26.4029 23.2291 26.3091C23.1989 26.2152 23.1505 26.1283 23.0866 26.0532C23.0228 25.9781 22.9449 25.9163 22.8572 25.8713C22.7696 25.8264 22.6739 25.7992 22.5758 25.7912C22.4776 25.7833 22.3788 25.7948 22.2851 25.825C22.1914 25.8553 22.1045 25.9037 22.0295 25.9676L22.028 25.9721Z" fill="black"/>
<path d="M47.5306 7.74797L47.9055 7.37268C48.6065 6.66646 49 5.71126 49 4.71562C49 3.71998 48.6065 2.76477 47.9055 2.05856C47.1885 1.37883 46.2387 1 45.2513 1C44.2639 1 43.314 1.37883 42.5971 2.05856L41.5474 3.12438L37.6936 6.96737H4.74884C3.75458 6.96737 2.80105 7.36276 2.09801 8.06657C1.39497 8.77038 1 9.72495 1 10.7203L1 36.2401C1 37.2354 1.39497 38.19 2.09801 38.8938C2.80105 39.5976 3.75458 39.993 4.74884 39.993H20.449C20.3472 41.1428 20.0049 42.2583 19.4443 43.2669C18.8837 44.2756 18.1173 45.1549 17.195 45.8475L14.7957 47.6489C14.6698 47.7435 14.5768 47.8752 14.5299 48.0256C14.483 48.176 14.4845 48.3373 14.5343 48.4868C14.5841 48.6362 14.6795 48.7662 14.8072 48.8583C14.9348 48.9504 15.0882 49 15.2456 49H34.7395C34.8969 49 35.0503 48.9504 35.1779 48.8583C35.3056 48.7662 35.4011 48.6362 35.4508 48.4868C35.5006 48.3373 35.5021 48.176 35.4552 48.0256C35.4083 47.8752 35.3153 47.7435 35.1894 47.6489L32.7901 45.8475C31.8678 45.1549 31.1014 44.2756 30.5408 43.2669C29.9802 42.2583 29.6379 41.1428 29.5361 39.993H45.2363C46.2305 39.993 47.1841 39.5976 47.8871 38.8938C48.5901 38.19 48.9851 37.2354 48.9851 36.2401V10.7203C48.9844 10.1467 48.8531 9.58089 48.601 9.06583C48.3489 8.55077 47.9828 8.10005 47.5306 7.74797ZM38.3234 8.46853L39.823 6.96737L42.0723 4.71562L44.3216 6.96737L45.2513 7.89809L44.6814 8.46853L30.6608 22.5194C29.9512 21.1538 28.8393 20.0397 27.4758 19.328L38.3234 8.46853ZM29.3262 23.279L26.0572 23.9305L26.711 20.6565C27.8409 21.2286 28.7583 22.1476 29.3292 23.279H29.3262ZM31.8904 47.0485L32.4902 47.4988H17.4949L18.0947 47.0485C19.2015 46.2135 20.1187 45.1528 20.7857 43.9365C21.4526 42.7202 21.854 41.3761 21.9635 39.993H28.0216C28.1311 41.3761 28.5325 42.7202 29.1995 43.9365C29.8664 45.1528 30.7836 46.2135 31.8904 47.0485ZM47.4856 36.2401C47.4856 36.8373 47.2486 37.41 46.8268 37.8323C46.4049 38.2546 45.8328 38.4918 45.2363 38.4918H4.74884C4.15229 38.4918 3.58017 38.2546 3.15834 37.8323C2.73651 37.41 2.49953 36.8373 2.49953 36.2401V33.9883H47.4856V36.2401ZM47.4856 32.4872H2.49953V10.7203C2.49953 10.1231 2.73651 9.55034 3.15834 9.12805C3.58017 8.70577 4.15229 8.46853 4.74884 8.46853H36.1941L25.6374 19.0518C25.5309 19.1526 25.4577 19.2835 25.4274 19.427L24.3628 24.7412C24.3404 24.8624 24.3478 24.9872 24.3844 25.1049C24.4209 25.2226 24.4856 25.3296 24.5727 25.4167C24.7178 25.5573 24.9106 25.6378 25.1125 25.6419C25.1575 25.6419 25.2025 25.6269 25.2475 25.6269L30.5558 24.561C30.5761 24.5592 30.5954 24.5513 30.6113 24.5385C30.6218 24.5385 30.6323 24.5385 30.6428 24.5385H30.6563C30.7112 24.5175 30.7619 24.487 30.8063 24.4484L30.8183 24.4379C30.8649 24.4065 30.9076 24.3697 30.9457 24.3283C30.9697 24.31 30.9927 24.2905 31.0147 24.2698L46.4509 8.82881C46.7702 9.02957 47.0329 9.30875 47.214 9.63982C47.3951 9.97089 47.4886 10.3428 47.4856 10.7203V32.4872ZM46.8408 6.30685L46.3159 6.84727L43.1369 3.6648L43.6618 3.12438C44.0887 2.7127 44.6585 2.48269 45.2513 2.48269C45.8441 2.48269 46.4138 2.7127 46.8408 3.12438C47.262 3.54659 47.4986 4.1189 47.4986 4.71562C47.4986 5.31233 47.262 5.88465 46.8408 6.30685ZM22.028 25.9721C21.4993 26.429 20.8847 26.7754 20.2202 26.991C19.5558 27.2065 18.8551 27.2868 18.1592 27.2271C17.6453 27.1766 17.1475 27.0197 16.6975 26.7661C16.2475 26.5126 15.8552 26.1681 15.5455 25.7545C14.8984 24.8601 14.5329 23.7927 14.4958 22.6891C14.4774 22.1098 14.4914 21.5299 14.5378 20.9522C14.6759 19.8134 14.6038 18.6588 14.3249 17.5461C14.0856 16.7855 13.6929 16.0823 13.1711 15.4798C12.6493 14.8774 12.0095 14.3887 11.2913 14.0439C10.4855 13.6454 9.60847 13.4118 8.71143 13.3566C7.81439 13.3015 6.91537 13.4259 6.06693 13.7226C5.97107 13.7537 5.88246 13.8037 5.80637 13.8699C5.73028 13.936 5.66828 14.0167 5.62407 14.1074C5.57986 14.198 5.55435 14.2966 5.54907 14.3973C5.54378 14.4981 5.55883 14.5988 5.59331 14.6936C5.62779 14.7884 5.68099 14.8752 5.74974 14.9489C5.81849 15.0227 5.90138 15.0818 5.99346 15.1227C6.08554 15.1636 6.18491 15.1856 6.28565 15.1872C6.38638 15.1888 6.48642 15.1701 6.57977 15.1322C7.2372 14.9018 7.934 14.8051 8.62925 14.8479C9.32451 14.8907 10.0042 15.0721 10.6285 15.3814C11.164 15.6369 11.6414 15.9996 12.0314 16.447C12.4214 16.8945 12.7156 17.4172 12.8958 17.9829C13.1158 18.9231 13.1665 19.8951 13.0458 20.8531C12.9921 21.4906 12.9756 22.1307 12.9963 22.7701C13.0482 24.1729 13.5182 25.528 14.3459 26.6612C14.7777 27.2397 15.3256 27.7214 15.9544 28.0753C16.5832 28.4293 17.2791 28.6476 17.9972 28.7163C18.2089 28.7391 18.4216 28.7507 18.6345 28.7508C20.2368 28.7322 21.7818 28.1522 23.0012 27.1115C23.0762 27.0476 23.1379 26.9696 23.1828 26.8818C23.2277 26.7941 23.2549 26.6983 23.2629 26.6001C23.2708 26.5018 23.2593 26.4029 23.2291 26.3091C23.1989 26.2152 23.1505 26.1283 23.0866 26.0532C23.0228 25.9781 22.9449 25.9163 22.8572 25.8713C22.7696 25.8264 22.6739 25.7992 22.5758 25.7912C22.4776 25.7833 22.3788 25.7948 22.2851 25.825C22.1914 25.8553 22.1045 25.9037 22.0295 25.9676L22.028 25.9721Z" stroke="black" stroke-width="0.4" mask="url(#path-1-outside-1_821_17802)"/>
</svg>
