<svg width="72" height="61" viewBox="0 0 72 61" fill="none" xmlns="http://www.w3.org/2000/svg">
<path d="M0 0V2.51564H6C6.31826 2.51564 6.62348 2.64418 6.84853 2.87297C7.07357 3.10176 7.2 3.41208 7.2 3.73564V32.5594C7.212 32.6252 7.1976 32.7204 7.2 32.7863V42.8513C7.2 42.9245 7.212 43.0099 7.2 43.0806V61H9.6V0H0ZM12 7.32V48.8H72V7.32H12ZM15.5256 9.76H15.6C15.9149 9.76993 16.2133 9.90535 16.4308 10.137C16.6484 10.3687 16.7675 10.6781 16.7627 10.9983C16.7578 11.3186 16.6292 11.624 16.4047 11.8487C16.1802 12.0735 15.8778 12.1994 15.5628 12.1994C15.2478 12.1994 14.9454 12.0735 14.7209 11.8487C14.4964 11.624 14.3678 11.3186 14.3629 10.9983C14.3581 10.6781 14.4772 10.3687 14.6948 10.137C14.9123 9.90535 15.2107 9.76993 15.5256 9.76ZM51.6 9.76C61.5264 9.76 69.6 17.9682 69.6 28.06C69.6 38.1518 61.5264 46.36 51.6 46.36C41.6736 46.36 33.6 38.1518 33.6 28.06C33.6 17.9682 41.6736 9.76 51.6 9.76ZM68.3256 9.76H68.4C68.7149 9.76993 69.0133 9.90535 69.2308 10.137C69.4484 10.3687 69.5675 10.6781 69.5627 10.9983C69.5578 11.3186 69.4292 11.624 69.2047 11.8487C68.9802 12.0735 68.6778 12.1994 68.3628 12.1994C68.0478 12.1994 67.7454 12.0735 67.5209 11.8487C67.2964 11.624 67.1678 11.3186 67.1629 10.9983C67.1581 10.6781 67.2772 10.3687 67.4948 10.137C67.7123 9.90535 68.0107 9.76993 68.3256 9.76ZM2.2488 12.0487V19.6713H4.728V12.0487H2.2488ZM20.4 12.2H25.2C25.5183 12.2 25.8235 12.3285 26.0485 12.5573C26.2736 12.7861 26.4 13.0964 26.4 13.42V14.64H28.8V17.08H26.4V19.52H28.8V21.96H26.4V23.18C26.4 23.5036 26.2736 23.8139 26.0485 24.0427C25.8235 24.2715 25.5183 24.4 25.2 24.4H20.4V23.18H19.2V21.96H16.8V19.52H19.2V17.08H16.8V14.64H19.2V13.42C19.2 13.0964 19.3264 12.7861 19.5515 12.5573C19.7765 12.3285 20.0817 12.2 20.4 12.2ZM51.6 12.2C49.5507 12.1974 47.521 12.6059 45.6272 13.402C43.7333 14.1982 42.0126 15.3663 40.5635 16.8396C39.1144 18.3128 37.9654 20.0622 37.1823 21.9876C36.3993 23.913 35.9975 25.9765 36 28.06C36 36.8342 42.9696 43.92 51.6 43.92C60.2304 43.92 67.2 36.8342 67.2 28.06C67.2 19.2858 60.2304 12.2 51.6 12.2ZM21.6 14.64V21.96H24V14.64H21.6ZM53.3256 14.64C54.0696 14.64 54.7656 14.6449 55.4256 14.7156C56.0832 14.7888 56.6496 14.8157 57.2256 15.0963C57.24 15.0963 57.2112 15.1744 57.2256 15.1744C57.4992 15.3208 57.8736 15.6794 57.9744 16.0894C58.0532 16.394 58.0269 16.717 57.9 17.0044C57.7296 17.4314 57.516 17.5973 57.3 17.8437C56.868 18.3342 56.328 18.9222 55.8 19.52C55.272 20.1178 54.7368 20.7229 54.4488 21.35C54.2771 21.7586 54.2007 22.202 54.2256 22.6456C55.3008 23.1898 56.1816 24.0291 56.7744 25.0856C58.2144 24.5635 59.5704 24.3024 60.7512 24.3244C62.2152 24.3488 63.588 24.788 64.2744 26.0006C64.6344 26.6326 64.656 27.1035 64.7256 27.755C64.7952 28.4065 64.8 29.1336 64.8 29.89C64.8 30.6464 64.7952 31.4321 64.7256 32.1006C64.6832 32.7088 64.5302 33.3036 64.2744 33.855C64.2672 33.8794 64.2816 33.916 64.2744 33.9306C64.1304 34.2088 63.7776 34.5894 63.3744 34.6944C62.9736 34.7993 62.6856 34.6944 62.4744 34.6163C62.0544 34.4455 61.8168 34.2259 61.5744 34.0063C61.092 33.5695 60.5904 33.0205 60 32.4813C59.412 31.9445 58.7424 31.4004 58.1256 31.11C57.7275 30.9199 57.2869 30.8407 56.8488 30.8806C56.3303 31.8663 55.5515 32.6851 54.6 33.245C55.128 34.7407 55.44 36.1535 55.4256 37.3637C55.4064 38.8546 54.8928 40.2454 53.7 40.9456C53.0808 41.3116 52.6152 41.3336 51.9744 41.4044C51.2762 41.4668 50.5752 41.492 49.8744 41.48C49.1304 41.48 48.36 41.4751 47.7 41.4044C47.04 41.3312 46.5504 41.3019 45.9744 41.0213C45.9624 41.0213 45.912 40.9481 45.9 40.9481C45.566 40.7435 45.3239 40.4143 45.2256 40.0306C45.147 39.7259 45.1733 39.4031 45.3 39.1156C45.4704 38.6886 45.684 38.5227 45.9 38.2787C46.332 37.7858 46.872 37.1978 47.4 36.6C47.928 36.0022 48.3888 35.3971 48.6744 34.77C48.876 34.3308 48.9816 33.9477 48.9744 33.55C47.956 33.0364 47.0989 32.2437 46.5 31.2613C45.0144 31.8103 43.6488 32.0445 42.4488 32.025C40.9824 32.0006 39.6144 31.5614 38.9256 30.3463C38.5656 29.7168 38.544 29.2458 38.4744 28.5944C38.4048 27.9429 38.3256 27.2133 38.3256 26.4594C38.3256 25.703 38.4048 24.9173 38.4744 24.2463C38.5464 23.5777 38.5752 23.08 38.8512 22.4944C38.8584 22.47 38.844 22.4334 38.8512 22.4187C38.8848 22.348 38.952 22.326 39 22.265C39.1734 21.9952 39.4425 21.8038 39.7512 21.7306C39.9216 21.6825 40.0975 21.657 40.2744 21.655C40.704 21.6794 40.9056 21.899 41.1 22.0356C41.3592 22.2186 41.6208 22.426 41.8512 22.6456C42.3096 23.0897 42.7872 23.6021 43.3512 24.095C44.2848 24.9148 45.2232 25.4541 46.1256 25.4687C46.6434 24.3539 47.4798 23.4236 48.5256 22.7994C48 21.311 47.7576 19.9616 47.7744 18.7587C47.7936 17.2654 48.3072 15.8746 49.5 15.1719C50.1192 14.8108 50.5848 14.7864 51.2256 14.7156C51.9238 14.6532 52.6248 14.6279 53.3256 14.64ZM53.3256 17.08C52.6536 17.08 51.9696 17.0971 51.4488 17.1556C50.9304 17.2142 50.5176 17.4143 50.7 17.3094C50.508 17.4216 50.1888 17.8291 50.1744 18.8344C50.1648 19.62 50.4912 20.7912 50.9256 22.0356C51.1416 22.0112 51.3768 21.96 51.6 21.96C51.7824 21.96 51.948 22.0186 52.1256 22.0356C52.1496 21.4549 52.0536 20.84 52.2744 20.3594C52.7232 19.3785 53.3928 18.5294 54 17.8437C54.276 17.529 54.432 17.4094 54.6744 17.1556C54.2328 17.1239 53.8152 17.08 53.3256 17.08ZM51.6 24.4756C51.264 24.4756 50.8824 24.5293 50.4 24.6294C49.8941 24.8017 49.4343 25.0911 49.057 25.4747C48.6797 25.8583 48.3951 26.3256 48.2256 26.84V26.9156C47.9928 28.0966 48.0504 28.5431 48.1488 29.2044C48.492 30.3097 49.3248 31.1198 50.4 31.4906C51.1248 31.681 51.8232 31.7346 52.7256 31.5687C53.8056 31.2149 54.612 30.3731 54.9744 29.28C55.0656 28.3772 55.1496 27.5964 54.9744 26.9913C54.9648 26.9571 54.9816 26.9498 54.9744 26.9181C54.7951 26.3881 54.4994 25.9065 54.1097 25.51C53.7201 25.1134 53.2467 24.8123 52.7256 24.6294C52.358 24.5313 51.98 24.4796 51.6 24.4756ZM40.8 25.01C40.7688 25.4638 40.8 25.9567 40.8 26.4594C40.8 27.1426 40.8192 27.838 40.8744 28.365C40.932 28.892 41.0544 29.3142 40.9512 29.1287C41.0616 29.3239 41.46 29.6362 42.4512 29.6606C43.2264 29.6606 44.4456 29.2654 45.6744 28.8237C45.6408 28.5578 45.6 28.3284 45.6 28.06C45.6 27.9234 45.5904 27.8136 45.6 27.6794C44.1853 27.4811 42.8569 26.872 41.7744 25.925C41.4395 25.6313 41.1145 25.3261 40.8 25.01ZM60.6744 26.7644C59.9112 26.74 58.7496 27.0816 57.5256 27.5256C57.5424 27.7086 57.6 27.8721 57.6 28.06C57.6 28.2845 57.5472 28.5285 57.5256 28.7456C58.1016 28.7749 58.6968 28.6724 59.1744 28.8994C60.1392 29.3556 60.9744 30.034 61.6512 30.6513C61.9584 30.9343 62.076 31.0905 62.3232 31.3394C62.3568 30.888 62.4 30.4634 62.4 29.9656C62.4 29.2824 62.3808 28.587 62.3256 28.06C62.268 27.533 62.0688 27.0352 62.1744 27.2206C62.064 27.0254 61.6632 26.7888 60.6744 26.7644ZM0 26.84V29.28H4.8V26.84H0ZM51.5256 26.84H51.6C51.9149 26.8499 52.2133 26.9853 52.4308 27.217C52.6484 27.4487 52.7675 27.7581 52.7627 28.0783C52.7578 28.3986 52.6292 28.704 52.4047 28.9287C52.1802 29.1535 51.8778 29.2794 51.5628 29.2794C51.2478 29.2794 50.9454 29.1535 50.7209 28.9287C50.4964 28.704 50.3678 28.3986 50.3629 28.0783C50.3581 27.7581 50.4772 27.4487 50.6948 27.217C50.9123 26.9853 51.2107 26.8499 51.5256 26.84ZM20.4 31.72H25.2C25.5183 31.72 25.8235 31.8485 26.0485 32.0773C26.2736 32.3061 26.4 32.6164 26.4 32.94V34.16H28.8V36.6H26.4V39.04H28.8V41.48H26.4V42.7C26.4 43.0236 26.2736 43.3339 26.0485 43.5627C25.8235 43.7915 25.5183 43.92 25.2 43.92H20.4V42.7H19.2V41.48H16.8V39.04H19.2V36.6H16.8V34.16H19.2V32.94C19.2 32.6164 19.3264 32.3061 19.5515 32.0773C19.7765 31.8485 20.0817 31.72 20.4 31.72ZM2.2488 34.0087V41.6337H4.8V34.0087H2.2488ZM51.0744 34.0819C51.0504 34.6675 51.072 35.2775 50.8512 35.7606C50.4024 36.7415 49.8072 37.5906 49.2 38.2787C48.924 38.5886 48.768 38.7106 48.5256 38.9619C48.9672 38.9961 49.3896 39.04 49.8744 39.04C50.5464 39.04 51.2304 39.0229 51.7512 38.9644C52.2696 38.9058 52.6824 38.7033 52.5 38.8106C52.692 38.6984 53.0112 38.2909 53.0256 37.2856C53.0352 36.5 52.7088 35.3312 52.2744 34.0844C52.0512 34.1088 51.8304 34.16 51.6 34.16C51.4248 34.16 51.2472 34.099 51.0744 34.0819ZM21.6 34.16V41.48H24V34.16H21.6ZM15.5256 43.92H15.6C15.9149 43.9299 16.2133 44.0654 16.4308 44.297C16.6484 44.5287 16.7675 44.8381 16.7627 45.1583C16.7578 45.4786 16.6292 45.784 16.4047 46.0087C16.1802 46.2335 15.8778 46.3594 15.5628 46.3594C15.2478 46.3594 14.9454 46.2335 14.7209 46.0087C14.4964 45.784 14.3678 45.4786 14.3629 45.1583C14.3581 44.8381 14.4772 44.5287 14.6948 44.297C14.9123 44.0654 15.2107 43.9299 15.5256 43.92ZM68.3256 43.92H68.4C68.7149 43.9299 69.0133 44.0654 69.2308 44.297C69.4484 44.5287 69.5675 44.8381 69.5627 45.1583C69.5578 45.4786 69.4292 45.784 69.2047 46.0087C68.9802 46.2335 68.6778 46.3594 68.3628 46.3594C68.0478 46.3594 67.7454 46.2335 67.5209 46.0087C67.2964 45.784 67.1678 45.4786 67.1629 45.1583C67.1581 44.8381 67.2772 44.5287 67.4948 44.297C67.7123 44.0654 68.0107 43.9299 68.3256 43.92ZM0 46.36V48.8H4.8V46.36H0ZM26.4 51.24V58.56H28.8V53.68H31.2V58.56H33.6V53.68H36V58.56H38.4V53.68H40.8V58.56H43.2V53.68H45.6V58.56H48V53.68H50.4V58.56H52.8V53.68H55.2V58.56H57.6V53.68H60V58.56H62.4V51.24H26.4Z" fill="black"/>
</svg>
